<svg xmlns="http://www.w3.org/2000/svg" width="262.408" height="147.844" viewBox="0 0 262.408 147.844">
  <path id="Path_20" data-name="Path 20" d="M293.91,212.775a10.928,10.928,0,1,1,10.927-10.93,10.941,10.941,0,0,1-10.927,10.93m-120.774,0a10.928,10.928,0,1,1,10.926-10.93,10.941,10.941,0,0,1-10.926,10.93m124.693-65.82,21.838-37.822a4.543,4.543,0,1,0-7.869-4.543l-22.111,38.3a137.274,137.274,0,0,0-112.327,0l-22.112-38.3a4.543,4.543,0,1,0-7.869,4.543l21.838,37.822a128.939,128.939,0,0,0-66.9,103.209H364.727a128.958,128.958,0,0,0-66.9-103.21" transform="translate(-102.319 -102.32)" fill="#3ddb85"/>
</svg>
